<?xml version="1.0" standalone="no"?><!DOCTYPE svg PUBLIC "-//W3C//DTD SVG 1.1//EN" "http://www.w3.org/Graphics/SVG/1.1/DTD/svg11.dtd"><svg t="1738809280724" class="icon" viewBox="0 0 1024 1024" version="1.1" xmlns="http://www.w3.org/2000/svg" p-id="4290" xmlns:xlink="http://www.w3.org/1999/xlink" width="200" height="200"><path d="M811.456 128zM512 192L128 128v711.68l384 64L896 832V128L512 192z m-320 594.56V202.88l256.64 42.24 6.4 584.96L192 786.56zM512 832V256l320-53.12v584.96L512 832z" fill="#8a8a8a" p-id="4291"></path><path d="M408 379.008l-176-28.032v-64l176 28.032zM408 560l-176-27.968v-64l176 27.968zM408 740.992l-176-27.968v-64l176 27.968zM584 379.008l176-28.032v-64l-176 28.032zM584 560l176-27.968v-64l-176 27.968zM584 740.992l176-27.968v-64l-176 27.968z" fill="#8a8a8a" p-id="4292"></path></svg>